<svg xmlns="http://www.w3.org/2000/svg" width="46" height="47"><g fill="#FF492C"><path d="M41.063 13.881h-7.054c.191-1.103.873-1.718 2.259-2.418l1.3-.658c2.323-1.188 3.559-2.524 3.559-4.71 0-1.378-.533-2.46-1.599-3.245-1.044-.785-2.323-1.166-3.793-1.166-1.172 0-2.238.296-3.218.912-.96.594-1.684 1.357-2.131 2.312l2.046 2.037c.788-1.592 1.939-2.376 3.452-2.376 1.279 0 2.067.657 2.067 1.57 0 .763-.383 1.4-1.854 2.142l-.83.403c-1.813.912-3.07 1.951-3.795 3.14-.724 1.166-1.086 2.672-1.086 4.475v.488h10.677v-2.906zm-.943 6.263H28.439l-5.84 10.069h11.68l5.84 10.069 5.842-10.07-5.841-10.068z"/><path d="M23.604 36.925c-7.437 0-13.488-6.022-13.488-13.425 0-7.403 6.051-13.425 13.488-13.425L28.222.456a23.85 23.85 0 00-4.618-.45C10.568.005 0 10.523 0 23.5c0 12.976 10.568 23.495 23.604 23.495a23.574 23.574 0 0013.902-4.507l-5.114-8.816a13.462 13.462 0 01-8.788 3.253z"/></g></svg>